<svg width="24" height="24" viewBox="0 0 24 24" fill="none" xmlns="http://www.w3.org/2000/svg">
<path d="M12.3384 16.827L16.2151 19.2883C16.715 19.6037 17.3304 19.1345 17.1842 18.5576L16.0612 14.1425C16.0309 14.0202 16.0357 13.8917 16.0752 13.7719C16.1146 13.6522 16.1871 13.546 16.2843 13.4657L19.761 10.5659C20.2148 10.189 19.984 9.4275 19.3918 9.38904L14.8536 9.09676C14.7298 9.08955 14.6108 9.04643 14.5111 8.97267C14.4113 8.89891 14.3353 8.7977 14.2921 8.6814L12.6 4.42018C12.5552 4.29704 12.4736 4.19066 12.3662 4.11549C12.2589 4.04032 12.131 4 12 4C11.869 4 11.7411 4.04032 11.6338 4.11549C11.5264 4.19066 11.4448 4.29704 11.4 4.42018L9.70786 8.6814C9.66474 8.7977 9.58867 8.89891 9.48895 8.97267C9.38923 9.04643 9.27019 9.08955 9.14637 9.09676L4.60824 9.38904C4.01598 9.4275 3.78523 10.189 4.23904 10.5659L7.71571 13.4657C7.81288 13.546 7.88537 13.6522 7.92484 13.7719C7.9643 13.8917 7.96913 14.0202 7.93877 14.1425L6.90038 18.2345C6.72347 18.9268 7.46188 19.4883 8.05414 19.1114L11.6616 16.827C11.7627 16.7626 11.8801 16.7285 12 16.7285C12.1199 16.7285 12.2373 16.7626 12.3384 16.827V16.827Z" stroke="black" stroke-width="1.5" stroke-linecap="round" stroke-linejoin="round"/>
</svg>
