<svg width="24" height="24" viewBox="0 0 24 24" fill="none" xmlns="http://www.w3.org/2000/svg">
<path d="M12.4665 18.2662L18.7169 12.0157C20.2525 10.4724 20.4763 7.94906 19.0256 6.33629C18.6618 5.92986 18.2189 5.60188 17.724 5.37239C17.2292 5.1429 16.6927 5.01672 16.1474 5.00155C15.6022 4.98638 15.0595 5.08255 14.5527 5.28418C14.0458 5.48581 13.5854 5.78866 13.1995 6.17424L12.0266 7.35488L11.0157 6.33629C9.4724 4.80068 6.94906 4.5769 5.33629 6.02762C4.92986 6.39145 4.60188 6.83433 4.37239 7.32919C4.1429 7.82405 4.01672 8.3605 4.00155 8.90578C3.98638 9.45105 4.08255 9.99369 4.28418 10.5005C4.48581 11.0074 4.78866 11.4678 5.17424 11.8537L11.5868 18.2662C11.7038 18.3821 11.8619 18.4471 12.0266 18.4471C12.1913 18.4471 12.3494 18.3821 12.4665 18.2662V18.2662Z" stroke="black" stroke-width="1.5" stroke-linecap="round" stroke-linejoin="round"/>
</svg>
