<svg width="24" height="24" viewBox="0 0 24 24" fill="none" xmlns="http://www.w3.org/2000/svg">
<path d="M12.6244 20.4813L20.9911 12.1146C23.0466 10.0487 23.3462 6.67105 21.4042 4.51223C20.9172 3.9682 20.3244 3.52918 19.662 3.22199C18.9996 2.91479 18.2815 2.74589 17.5516 2.72559C16.8217 2.70529 16.0954 2.83402 15.4169 3.10391C14.7384 3.3738 14.1221 3.7792 13.6056 4.29532L12.0356 5.8757L10.6825 4.51223C8.6166 2.45671 5.23892 2.15716 3.0801 4.09906C2.53607 4.58607 2.09705 5.17889 1.78986 5.8413C1.48267 6.50371 1.31376 7.22179 1.29346 7.95168C1.27316 8.68157 1.40189 9.40794 1.67178 10.0864C1.94168 10.7649 2.34707 11.3812 2.86319 11.8977L11.4468 20.4813C11.6035 20.6365 11.8151 20.7235 12.0356 20.7235C12.2561 20.7235 12.4677 20.6365 12.6244 20.4813Z" fill="#D6D8DB"/>
</svg>
