<svg width="24" height="24" viewBox="0 0 24 24" fill="none" xmlns="http://www.w3.org/2000/svg">
<path d="M18.5455 10.5455C18.5455 15.6364 12 20 12 20C12 20 5.45453 15.6364 5.45453 10.5455C5.45453 8.80949 6.14414 7.14463 7.37165 5.91712C8.59916 4.68961 10.264 4 12 4C13.736 4 15.4008 4.68961 16.6283 5.91712C17.8558 7.14463 18.5455 8.80949 18.5455 10.5455Z" stroke="black" stroke-width="1.5" stroke-linecap="round" stroke-linejoin="round"/>
<path d="M12.0001 12.7274C13.2051 12.7274 14.1819 11.7506 14.1819 10.5456C14.1819 9.3406 13.2051 8.36377 12.0001 8.36377C10.7951 8.36377 9.8183 9.3406 9.8183 10.5456C9.8183 11.7506 10.7951 12.7274 12.0001 12.7274Z" stroke="black" stroke-width="1.5" stroke-linecap="round" stroke-linejoin="round"/>
</svg>
