<svg width="24" height="24" viewBox="0 0 24 24" fill="none" xmlns="http://www.w3.org/2000/svg">
<path d="M18.5455 10.5455C18.5455 15.6364 12.0001 20 12.0001 20C12.0001 20 5.45459 15.6364 5.45459 10.5455C5.45459 8.80949 6.1442 7.14463 7.37171 5.91712C8.59922 4.68961 10.2641 4 12.0001 4C13.736 4 15.4009 4.68961 16.6284 5.91712C17.8559 7.14463 18.5455 8.80949 18.5455 10.5455Z" stroke="black" stroke-width="1.5" stroke-linecap="round" stroke-linejoin="round"/>
<path d="M12.0002 12.7274C13.2052 12.7274 14.182 11.7506 14.182 10.5456C14.182 9.3406 13.2052 8.36377 12.0002 8.36377C10.7952 8.36377 9.81836 9.3406 9.81836 10.5456C9.81836 11.7506 10.7952 12.7274 12.0002 12.7274Z" stroke="black" stroke-width="1.5" stroke-linecap="round" stroke-linejoin="round"/>
</svg>
