<svg width="24" height="24" viewBox="0 0 24 24" fill="none" xmlns="http://www.w3.org/2000/svg">
<path d="M9.38226 16.8292V17.4731C9.38226 18.1562 9.65361 18.8113 10.1366 19.2943C10.6196 19.7773 11.2747 20.0486 11.9578 20.0486C12.6409 20.0486 13.296 19.7773 13.779 19.2943C14.262 18.8113 14.5334 18.1562 14.5334 17.4731V16.8292" stroke="black" stroke-width="1.5" stroke-linecap="round" stroke-linejoin="round"/>
<path d="M6.17888 9.74647C6.17781 8.98313 6.32777 8.22712 6.62012 7.52198C6.91248 6.81684 7.34146 6.17651 7.88234 5.63787C8.42323 5.09923 9.06534 4.67292 9.77169 4.38349C10.478 4.09407 11.2347 3.94726 11.998 3.95151C15.1852 3.97565 17.7366 6.62363 17.7366 9.81891V10.3904C17.7366 13.2717 18.3403 14.9458 18.8715 15.8634C18.9279 15.9611 18.9577 16.0719 18.9578 16.1848C18.9579 16.2976 18.9283 16.4085 18.8721 16.5063C18.8158 16.6041 18.7349 16.6854 18.6373 16.7421C18.5397 16.7988 18.429 16.8288 18.3161 16.8292H5.59938C5.48655 16.8288 5.3758 16.7988 5.27823 16.7421C5.18067 16.6854 5.09971 16.6041 5.04346 16.5063C4.98722 16.4085 4.95766 16.2976 4.95776 16.1848C4.95786 16.0719 4.98761 15.9611 5.04403 15.8634C5.57524 14.9458 6.17888 13.2717 6.17888 10.3904V9.74647Z" stroke="black" stroke-width="1.5" stroke-linecap="round" stroke-linejoin="round"/>
</svg>
