<svg width="24" height="24" viewBox="0 0 24 24" fill="none" xmlns="http://www.w3.org/2000/svg">
<path d="M20.0557 15.9509V18.3644C20.0566 18.5884 20.0107 18.8102 19.9209 19.0155C19.8312 19.2208 19.6995 19.405 19.5344 19.5565C19.3693 19.708 19.1744 19.8233 18.9622 19.895C18.7499 19.9668 18.525 19.9935 18.3019 19.9733C15.8264 19.7043 13.4485 18.8584 11.3593 17.5036C9.41552 16.2684 7.76756 14.6205 6.53242 12.6767C5.17284 10.578 4.32675 8.18853 4.06268 5.7019C4.04258 5.47943 4.06902 5.25522 4.14031 5.04353C4.21161 4.83185 4.3262 4.63732 4.4768 4.47235C4.62739 4.30738 4.81069 4.17557 5.01501 4.08532C5.21934 3.99507 5.44022 3.94835 5.66359 3.94814H8.07702C8.46743 3.94429 8.84593 4.08255 9.14195 4.33713C9.43797 4.59171 9.63132 4.94524 9.68597 5.33184C9.78783 6.10419 9.97674 6.86254 10.2491 7.59242C10.3573 7.88036 10.3808 8.19329 10.3166 8.49414C10.2524 8.79499 10.1034 9.07114 9.88709 9.28986L8.8654 10.3116C10.0106 12.3256 11.6782 13.9932 13.6923 15.1384L14.7139 14.1167C14.9327 13.9004 15.2088 13.7514 15.5097 13.6872C15.8105 13.623 16.1234 13.6465 16.4114 13.7547C17.1413 14.0271 17.8996 14.216 18.672 14.3178C19.0627 14.373 19.4196 14.5698 19.6748 14.8709C19.9299 15.172 20.0654 15.5564 20.0557 15.9509Z" stroke="black" stroke-width="1.5" stroke-linecap="round" stroke-linejoin="round"/>
</svg>
