<svg width="24" height="24" viewBox="0 0 24 24" fill="none" xmlns="http://www.w3.org/2000/svg">
<path d="M21 17.5909C21 18.0249 20.8276 18.4411 20.5207 18.748C20.2138 19.0549 19.7976 19.2273 19.3636 19.2273H4.63636C4.20237 19.2273 3.78616 19.0549 3.47928 18.748C3.1724 18.4411 3 18.0249 3 17.5909V8.59091C3 8.15692 3.1724 7.7407 3.47928 7.43383C3.78616 7.12695 4.20237 6.95455 4.63636 6.95455H7.90909L9.54545 4.5H14.4545L16.0909 6.95455H19.3636C19.7976 6.95455 20.2138 7.12695 20.5207 7.43383C20.8276 7.7407 21 8.15692 21 8.59091V17.5909Z" stroke="black" stroke-width="1.5" stroke-linecap="round" stroke-linejoin="round"/>
<path d="M11.9999 15.9546C13.8074 15.9546 15.2726 14.4894 15.2726 12.6819C15.2726 10.8744 13.8074 9.40918 11.9999 9.40918C10.1924 9.40918 8.72717 10.8744 8.72717 12.6819C8.72717 14.4894 10.1924 15.9546 11.9999 15.9546Z" stroke="black" stroke-width="1.5" stroke-linecap="round" stroke-linejoin="round"/>
</svg>
