<svg width="24" height="24" viewBox="0 0 24 24" fill="none" xmlns="http://www.w3.org/2000/svg">
<g id="Icons / 24px / Store">
<g id="Group 709">
<path id="Vector" d="M5.3335 13.3V19C5.3335 19.1769 5.40373 19.3464 5.52876 19.4715C5.65378 19.5965 5.82335 19.6667 6.00016 19.6667H18.0002C18.177 19.6667 18.3465 19.5965 18.4716 19.4715C18.5966 19.3464 18.6668 19.1769 18.6668 19V13.3" stroke="#858B93" stroke-width="1.5" stroke-linecap="round" stroke-linejoin="round"/>
<path id="Vector_2" d="M5.83333 5H18.1667C18.3113 5.00119 18.4517 5.0488 18.5672 5.13582C18.6828 5.22284 18.7673 5.34466 18.8083 5.48333L20 9.66666H4L5.19167 5.48333C5.23273 5.34466 5.31725 5.22284 5.43277 5.13582C5.54829 5.0488 5.68871 5.00119 5.83333 5V5Z" stroke="#858B93" stroke-width="1.5" stroke-linecap="round" stroke-linejoin="round"/>
<path id="Vector_3" d="M9.33333 9.6665V10.9998C9.33333 11.7071 9.05238 12.3854 8.55229 12.8855C8.05219 13.3855 7.37391 13.6665 6.66667 13.6665C5.95942 13.6665 5.28115 13.3855 4.78105 12.8855C4.28095 12.3854 4 11.7071 4 10.9998V9.6665" stroke="#858B93" stroke-width="1.5" stroke-linecap="round" stroke-linejoin="round"/>
<path id="Vector_4" d="M14.6668 9.6665V10.9998C14.6668 11.7071 14.3859 12.3854 13.8858 12.8855C13.3857 13.3855 12.7074 13.6665 12.0002 13.6665C11.2929 13.6665 10.6146 13.3855 10.1145 12.8855C9.61445 12.3854 9.3335 11.7071 9.3335 10.9998V9.6665" stroke="#858B93" stroke-width="1.5" stroke-linecap="round" stroke-linejoin="round"/>
<path id="Vector_5" d="M19.9998 9.6665V10.9998C19.9998 11.7071 19.7189 12.3854 19.2188 12.8855C18.7187 13.3855 18.0404 13.6665 17.3332 13.6665C16.6259 13.6665 15.9477 13.3855 15.4476 12.8855C14.9475 12.3854 14.6665 11.7071 14.6665 10.9998V9.6665" stroke="#858B93" stroke-width="1.5" stroke-linecap="round" stroke-linejoin="round"/>
</g>
</g>
</svg>
